<svg xmlns="http://www.w3.org/2000/svg" width="1600" height="1000" viewBox="0 0 1600 1000">
  <!-- GAAhex brand hex field — multi-colour, each hex glows its own colour. Per-page-type variant. -->
  <defs>
    <filter id="g" x="-60%" y="-60%" width="220%" height="220%">
      <feGaussianBlur in="SourceGraphic" stdDeviation="7" result="b"/>
      <feMerge><feMergeNode in="b"/><feMergeNode in="b"/><feMergeNode in="SourceGraphic"/></feMerge>
    </filter>
  </defs>
  <g fill="none" stroke-width="3.5" filter="url(#g)">
    <polygon points="120,-280 431.8,-100 431.8,260 120,440 -191.8,260 -191.8,-100" stroke="#4FB8F0" stroke-opacity="0.22"/>
    <polygon points="1480,520 1826.4,720 1826.4,1120 1480,1320 1133.6,1120 1133.6,720" stroke="#E6CC93" stroke-opacity="0.2"/>
    <polygon points="1300,50 1429.9,125 1429.9,275 1300,350 1170.1,275 1170.1,125" stroke="#A78BE6" stroke-opacity="0.2"/>
    <polygon points="520,510 632.6,575 632.6,705 520,770 407.4,705 407.4,575" stroke="#3FCB86" stroke-opacity="0.18"/>
    <polygon points="840,305 922.3,352.5 922.3,447.5 840,495 757.7,447.5 757.7,352.5" stroke="#4FB8F0" stroke-opacity="0.13"/>
  </g>
</svg>
